# xmcd CD database file
#
# Track frame offsets:
#	150
#	17630
#	36080
#	53507
#
# Disc length: 957 seconds
#
# Revision: 0
# Processed by: cddbd v1.5PL3 Copyright (c) Steve Scherf et al.
# Submitted via: CDex 1.51
#
DISCID=2403bb04
DTITLE=谷本 貴義 - 君にこの声が届きますように
DYEAR=2004
DGENRE=Pop
TTITLE0=君にこの声が届きますように
TTITLE1=Nobody's Sun
TTITLE2=君にこの声が届きますように(original karaoke)
TTITLE3=Nobody's Sun(original karaoke)
EXTD=YEAR: 2004
EXTT0=
EXTT1=
EXTT2=
EXTT3=
PLAYORDER=
